<?xml version="1.0" encoding="UTF-8"?>
<svg id="_Слой_2" data-name="Слой 2" xmlns="http://www.w3.org/2000/svg" viewBox="0 0 855.37 183.16">
  <defs>
    <style>
      .cls-1 {
        fill: #af22eb;
      }

      .cls-2 {
        fill: #ad1eea;
      }

      .cls-3 {
        fill: #eedff7;
      }

      .cls-4 {
        fill: #ab1be9;
      }

      .cls-5 {
        fill: #ac1de9;
      }

      .cls-6 {
        fill: #a917e7;
      }

      .cls-7 {
        fill: #fefefe;
      }
    </style>
  </defs>
  <g id="_Слой_1-2" data-name="Слой 1">
    <g>
      <g>
        <path class="cls-7" d="M36.26,106.76c-6.27,6.21-15.27,7.83-22.95,4.42C5.04,107.5-.32,99.29,.02,90.6c.22-5.57,2.63-10.25,6.49-14.12C24.43,58.5,42.41,40.59,60.37,22.66c.13-.13,.3-.22,.7-.51,.38,3.37,.83,6.49,1.95,9.48,1.61,4.3,4.03,8.09,7.27,11.34,4.62,4.63,9.23,9.27,13.91,13.84,.93,.91,.85,1.37-.03,2.25-15.98,15.88-31.9,31.84-47.91,47.7Z"/>
        <path class="cls-7" d="M106.46,146.49c7.07,7.08,8.72,17.19,4.23,25.47-6.16,11.36-23.12,15.76-33.69,5.19-17.91-17.91-35.85-35.78-53.76-53.67-.3-.3-.76-.51-.77-1.18,9.62-.45,17.14-5.03,23.51-11.95,3.24-3.52,6.76-6.79,10.15-10.18q1.96-1.96,3.99,.07c15.45,15.41,30.92,30.81,46.34,46.26Z"/>
        <path class="cls-7" d="M114.84,87.51c2.56,2.58,2.61,5.63,.03,8.24-6.24,6.31-12.55,12.55-18.83,18.81-1.14,1.14-2.47,1.86-4.13,1.87-1.58,.03-2.91-.59-4.01-1.68-6.38-6.35-12.76-12.69-19.1-19.08-2.51-2.53-2.51-5.54,0-8.07,6.29-6.35,12.61-12.66,18.97-18.94,2.6-2.57,5.62-2.53,8.23,.06,6.3,6.25,12.58,12.51,18.84,18.8Z"/>
        <path class="cls-7" d="M76.84,36.32c-6.3-6.32-7.95-15.41-4.47-23.49C75.76,4.97,83.91-.24,92.63,0c5.1,.15,9.74,1.83,13.37,5.43,18.39,18.24,36.69,36.57,55.02,54.87,.13,.13,.22,.31,.54,.78-2.86,.18-5.4,.51-7.87,1.26-4.94,1.48-9.26,3.98-12.91,7.61-4.69,4.65-9.38,9.31-14.01,14.01-.88,.89-1.36,.92-2.27,.01-15.87-15.91-31.81-31.75-47.67-47.66Z"/>
        <path class="cls-7" d="M177.18,106.79c-6.08,6.19-12.27,12.27-18.4,18.4-11.5,11.48-23.01,22.96-34.52,34.43-.48,.48-.85,1.14-1.6,1.33-.37-2.18-.63-4.35-1.13-6.46-1.3-5.4-4-10.07-7.91-14.01-4.6-4.64-9.21-9.29-13.89-13.85-1.06-1.03-1-1.57,.02-2.58,15.79-15.7,31.51-31.48,47.32-47.16,6.01-5.96,13.3-7.96,21.42-5.46,7.86,2.43,12.8,7.94,14.51,15.99,1.58,7.42-.5,13.97-5.82,19.38Z"/>
        <path class="cls-4" d="M161.57,61.09c-2.86,.18-5.4,.51-7.87,1.26-4.94,1.48-9.26,3.98-12.91,7.61-4.69,4.65-9.38,9.31-14.01,14.01-.88,.89-1.36,.92-2.27,.01-15.87-15.91-31.81-31.75-47.67-47.66-6.3-6.32-7.95-15.41-4.47-23.49C75.76,4.97,83.91-.24,92.63,0c5.1,.15,9.74,1.83,13.37,5.43,18.39,18.24,36.69,36.57,55.02,54.87,.13,.13,.22,.31,.54,.78Z"/>
        <path class="cls-2" d="M110.69,171.96c-6.16,11.36-23.12,15.76-33.69,5.19-17.91-17.91-35.85-35.78-53.76-53.67-.3-.3-.76-.51-.77-1.18,9.62-.45,17.14-5.03,23.51-11.95,3.24-3.52,6.76-6.79,10.15-10.18q1.96-1.96,3.99,.07c15.45,15.41,30.92,30.81,46.34,46.26,7.07,7.08,8.72,17.19,4.23,25.47Z"/>
        <path class="cls-1" d="M84.17,59.06c-15.98,15.88-31.9,31.84-47.91,47.7-6.27,6.21-15.27,7.83-22.95,4.42C5.04,107.5-.32,99.29,.02,90.6c.22-5.57,2.63-10.25,6.49-14.12C24.43,58.5,42.41,40.59,60.37,22.66c.13-.13,.3-.22,.7-.51,.38,3.37,.83,6.49,1.95,9.48,1.61,4.3,4.03,8.09,7.27,11.34,4.62,4.63,9.23,9.27,13.91,13.84,.93,.91,.85,1.37-.03,2.25Z"/>
        <path class="cls-6" d="M177.18,106.79c-6.08,6.19-12.27,12.27-18.4,18.4-11.5,11.48-23.01,22.96-34.52,34.43-.48,.48-.85,1.14-1.6,1.33-.37-2.18-.63-4.35-1.13-6.46-1.3-5.4-4-10.07-7.91-14.01-4.6-4.64-9.21-9.29-13.89-13.85-1.06-1.03-1-1.57,.02-2.58,15.79-15.7,31.51-31.48,47.32-47.16,6.01-5.96,13.3-7.96,21.42-5.46,7.86,2.43,12.8,7.94,14.51,15.99,1.58,7.42-.5,13.97-5.82,19.38Z"/>
        <path class="cls-5" d="M114.87,95.75c-6.24,6.31-12.55,12.55-18.83,18.81-1.14,1.14-2.47,1.86-4.13,1.87-1.58,.03-2.91-.59-4.01-1.68-6.38-6.35-12.76-12.69-19.1-19.08-2.51-2.53-2.51-5.54,0-8.07,6.29-6.35,12.61-12.66,18.97-18.94,2.6-2.57,5.62-2.53,8.23,.06,6.3,6.25,12.58,12.51,18.84,18.8,2.56,2.58,2.61,5.63,.03,8.24Z"/>
      </g>
      <g>
        <path class="cls-3" d="M266.18,20.29h21l17.6,48.4,17.6-48.4h21.2l-24.4,63,21.2,52.4,44.4-116h24.4l-58,142h-19.6l-26.6-63.6-26.8,63.6h-19.6L200.58,19.69h24.4l44.4,116,21.2-52.4-24.4-63Z"/>
        <path class="cls-3" d="M436.78,163.69c-8.27,0-15.67-1.42-22.2-4.27-6.54-2.84-12.2-6.75-17-11.71-4.8-4.96-8.5-10.65-11.1-17.07-2.6-6.42-3.9-13.2-3.9-20.35,0-9.89,2.27-18.92,6.8-27.1,4.53-8.17,10.9-14.7,19.1-19.58,8.2-4.88,17.63-7.32,28.3-7.32s20.57,2.48,28.5,7.43c7.93,4.95,14.1,11.45,18.5,19.51,4.4,8.05,6.6,16.7,6.6,25.94,0,1.59-.07,3.07-.2,4.46-.13,1.39-.27,2.47-.4,3.27h-84c.67,6.19,2.47,11.55,5.4,16.09,2.93,4.54,6.73,8.09,11.4,10.66,4.67,2.57,9.6,3.85,14.8,3.85,6,0,11.63-1.47,16.9-4.4,5.27-2.93,8.83-6.8,10.7-11.6l18.8,5.4c-2.27,5.07-5.73,9.63-10.4,13.7-4.67,4.07-10.1,7.27-16.3,9.6-6.2,2.33-12.97,3.5-20.3,3.5Zm-31.4-61.2h63.2c-.54-6.01-2.23-11.24-5.1-15.68-2.87-4.44-6.63-7.94-11.3-10.49-4.67-2.55-9.73-3.83-15.2-3.83s-10.7,1.28-15.3,3.83-8.37,6.05-11.3,10.49c-2.93,4.44-4.6,9.67-5,15.68Z"/>
        <path class="cls-3" d="M552.78,163.69c-8,0-15.23-1.9-21.7-5.7-6.47-3.8-11.57-8.83-15.3-15.1v18.8h-19.4V15.69h22v62c4.13-6.53,9.3-11.73,15.5-15.6,6.2-3.87,13.5-5.8,21.9-5.8,7.07,0,13.43,1.45,19.1,4.36,5.67,2.91,10.53,6.9,14.6,11.99,4.07,5.09,7.2,10.83,9.4,17.24s3.3,13.18,3.3,20.31-1.23,14.33-3.7,20.81c-2.47,6.48-5.93,12.19-10.4,17.14-4.47,4.96-9.7,8.79-15.7,11.49-6,2.71-12.53,4.06-19.6,4.06Zm-5.6-18.8c4.67,0,9-.95,13-2.86s7.43-4.44,10.3-7.59c2.87-3.15,5.1-6.83,6.7-11.04s2.4-8.55,2.4-13.02c0-6.31-1.3-12.12-3.9-17.45-2.6-5.33-6.23-9.63-10.9-12.92-4.67-3.29-10.07-4.93-16.2-4.93-4.4,0-8.54,1.02-12.4,3.06-3.87,2.04-7.3,4.73-10.3,8.08-3,3.35-5.5,7.07-7.5,11.14v27.21c.67,3.03,2,5.75,4,8.19,2,2.43,4.4,4.57,7.2,6.41,2.8,1.84,5.7,3.25,8.7,4.24,3,.99,5.97,1.48,8.9,1.48Z"/>
        <path class="cls-3" d="M619.78,89.49c0-8.67,1.53-17.17,4.6-25.5,3.07-8.33,7.57-15.93,13.5-22.8,5.93-6.87,13.13-12.33,21.6-16.4,8.47-4.07,18.1-6.1,28.9-6.1,12.93,0,24.03,2.9,33.3,8.7,9.27,5.8,16.17,13.23,20.7,22.3l-17.6,11.8c-2.53-5.73-5.83-10.27-9.9-13.6-4.07-3.33-8.5-5.67-13.3-7-4.8-1.33-9.47-2-14-2-7.33,0-13.8,1.5-19.4,4.5-5.6,3-10.3,6.97-14.1,11.9-3.8,4.93-6.63,10.47-8.5,16.6-1.87,6.13-2.8,12.27-2.8,18.4,0,6.93,1.1,13.53,3.3,19.8,2.2,6.27,5.33,11.83,9.4,16.7,4.07,4.87,8.87,8.7,14.4,11.5,5.53,2.8,11.63,4.2,18.3,4.2,4.67,0,9.46-.8,14.4-2.4,4.93-1.6,9.5-4.13,13.7-7.6,4.2-3.47,7.5-7.87,9.9-13.2l18.6,10.4c-2.8,7.07-7.3,13.07-13.5,18-6.2,4.94-13.17,8.67-20.9,11.2-7.73,2.53-15.4,3.8-23,3.8-9.73,0-18.73-2.1-27-6.3-8.27-4.2-15.43-9.8-21.5-16.8-6.07-7-10.77-14.87-14.1-23.6-3.33-8.73-5-17.57-5-26.5Z"/>
        <path class="cls-3" d="M801.57,163.69c-8.27,0-15.67-1.42-22.2-4.26-6.53-2.84-12.17-6.77-16.9-11.79-4.73-5.02-8.37-10.73-10.9-17.14-2.53-6.41-3.8-13.18-3.8-20.31s1.27-14.3,3.8-20.71c2.53-6.41,6.17-12.12,10.9-17.14,4.73-5.02,10.4-8.95,17-11.79,6.6-2.84,13.97-4.26,22.1-4.26s15.63,1.42,22.1,4.26c6.47,2.84,12.1,6.77,16.9,11.79,4.8,5.02,8.47,10.73,11,17.14,2.53,6.41,3.8,13.31,3.8,20.71s-1.27,13.91-3.8,20.31c-2.53,6.41-6.17,12.12-10.9,17.14-4.73,5.02-10.4,8.95-17,11.79-6.6,2.84-13.97,4.26-22.1,4.26Zm-31.2-53.7c0,6.71,1.4,12.69,4.2,17.94,2.8,5.26,6.53,9.4,11.2,12.42,4.67,3.03,9.87,4.54,15.6,4.54s11.33-1.51,16-4.54c4.67-3.02,8.4-7.23,11.2-12.62,2.8-5.39,4.2-11.3,4.2-17.75s-1.4-12.52-4.2-17.84c-2.8-5.32-6.57-9.5-11.3-12.52-4.73-3.02-9.97-4.53-15.7-4.53s-11.13,1.58-15.8,4.73c-4.67,3.16-8.4,7.36-11.2,12.62-2.8,5.26-4.2,11.11-4.2,17.55Z"/>
      </g>
    </g>
  </g>
</svg>