<svg width="700" height="150" viewBox="0 0 700 150" fill="none" xmlns="http://www.w3.org/2000/svg">
<g clip-path="url(#clip0_73_24)">
<path d="M29.6738 87.368C24.5426 92.45 17.1774 93.7758 10.8924 90.9852C4.12458 87.9736 -0.261827 81.2549 0.0164152 74.1433C0.196454 69.5851 2.1687 65.7551 5.32757 62.5881C19.9926 47.874 34.7067 33.2172 49.4044 18.544C49.5108 18.4376 49.6499 18.364 49.9773 18.1266C50.2882 20.8845 50.6565 23.4378 51.5731 25.8847C52.8906 29.4036 54.871 32.5052 57.5225 35.1649C61.3033 38.9539 65.076 42.7511 68.9059 46.491C69.667 47.2357 69.6015 47.6121 68.8814 48.3323C55.804 61.3278 42.7757 74.3888 29.6738 87.368Z" fill="#FEFEFE"/>
<path d="M87.1227 119.881C92.9085 125.675 94.2588 133.949 90.5843 140.725C85.5432 150.022 71.6639 153.622 63.0138 144.972C48.357 130.316 33.6756 115.691 19.0188 101.051C18.7733 100.805 18.3969 100.634 18.3887 100.085C26.2613 99.7171 32.4154 95.969 37.6283 90.3059C40.2798 87.4253 43.1604 84.7493 45.9346 81.975C47.004 80.9057 48.0924 80.9248 49.1999 82.0323C61.8436 94.6432 74.5036 107.246 87.1227 119.89V119.881Z" fill="#FEFEFE"/>
<path d="M93.9805 71.6146C96.0755 73.726 96.1164 76.222 94.0051 78.3579C88.8985 83.5217 83.7347 88.6283 78.5954 93.7512C77.6624 94.6842 76.574 95.2734 75.2155 95.2816C73.9225 95.3061 72.8341 94.7987 71.9339 93.9067C66.7128 88.7101 61.4917 83.5217 56.3033 78.2924C54.2492 76.222 54.2492 73.7587 56.3033 71.6883C61.4507 66.4917 66.6228 61.3278 71.8275 56.1885C73.9553 54.0854 76.4267 54.1181 78.5626 56.2376C83.7183 61.3524 88.8576 66.4753 93.9805 71.6228V71.6146Z" fill="#FEFEFE"/>
<path d="M62.8829 29.7228C57.7273 24.5508 56.377 17.1119 59.2249 10.4995C61.9991 4.06724 68.6687 -0.19641 75.8048 -4.02238e-06C79.9785 0.12275 83.7757 1.49759 86.7463 4.44369C101.796 19.3706 116.772 34.3711 131.772 49.3471C131.879 49.4534 131.952 49.6008 132.214 49.9854C129.874 50.1327 127.795 50.4027 125.774 51.0165C121.731 52.2277 118.196 54.2736 115.209 57.2442C111.371 61.0496 107.533 64.8632 103.744 68.7094C103.023 69.4378 102.631 69.4623 101.886 68.7176C88.8986 55.6975 75.8539 42.7347 62.8748 29.7146L62.8829 29.7228Z" fill="#FEFEFE"/>
<path d="M144.997 87.3926C140.022 92.4582 134.956 97.4338 129.939 102.45C120.528 111.845 111.109 121.24 101.69 130.626C101.297 131.019 100.994 131.559 100.38 131.715C100.077 129.931 99.8646 128.155 99.4555 126.428C98.3916 122.009 96.182 118.187 92.9822 114.963C89.2178 111.166 85.4452 107.361 81.6152 103.629C80.7478 102.786 80.7969 102.344 81.6316 101.517C94.5535 88.6692 107.418 75.7555 120.356 62.9236C125.275 58.0462 131.241 56.4095 137.886 58.4554C144.318 60.444 148.361 64.9532 149.76 71.541C151.053 77.6132 149.351 82.9734 144.997 87.4008V87.3926Z" fill="#FEFEFE"/>
<path d="M132.223 49.9936C129.882 50.1409 127.803 50.4109 125.782 51.0247C121.739 52.2359 118.204 54.2818 115.217 57.2524C111.379 61.0578 107.541 64.8713 103.752 68.7176C103.032 69.446 102.639 69.4705 101.894 68.7258C88.9068 55.7057 75.8621 42.7429 62.8829 29.7228C57.7273 24.5508 56.377 17.1119 59.2249 10.4995C61.9991 4.06724 68.6687 -0.19641 75.8048 -4.02285e-06C79.9785 0.12275 83.7757 1.49759 86.7463 4.44369C101.796 19.3706 116.772 34.3711 131.772 49.3471C131.879 49.4534 131.952 49.6007 132.214 49.9854L132.223 49.9936Z" fill="#FDFAFF"/>
<path d="M90.5843 140.725C85.5432 150.022 71.6639 153.622 63.0138 144.972C48.357 130.316 33.6756 115.691 19.0188 101.051C18.7733 100.805 18.3969 100.634 18.3887 100.085C26.2613 99.7171 32.4154 95.969 37.6283 90.3059C40.2798 87.4253 43.1604 84.7493 45.9346 81.975C47.004 80.9057 48.0924 80.9248 49.1999 82.0323C61.8436 94.6432 74.5036 107.246 87.1227 119.89C92.9085 125.684 94.2588 133.957 90.5843 140.733V140.725Z" fill="#FDFAFF"/>
<path d="M68.8814 48.3323C55.804 61.3278 42.7757 74.3888 29.6738 87.368C24.5426 92.45 17.1774 93.7758 10.8924 90.9852C4.12458 87.9736 -0.261827 81.2549 0.0164152 74.1433C0.196454 69.5851 2.1687 65.7551 5.32757 62.5881C19.9926 47.874 34.7067 33.2172 49.4044 18.544C49.5108 18.4376 49.6499 18.364 49.9773 18.1266C50.2882 20.8845 50.6565 23.4378 51.5731 25.8847C52.8906 29.4036 54.871 32.5052 57.5225 35.1649C61.3033 38.9539 65.076 42.7511 68.9059 46.491C69.667 47.2357 69.6015 47.6121 68.8814 48.3323Z" fill="#FDFAFF"/>
<path d="M144.997 87.3926C140.022 92.4582 134.956 97.4338 129.939 102.45C120.528 111.845 111.109 121.24 101.69 130.626C101.297 131.019 100.994 131.559 100.38 131.715C100.077 129.931 99.8646 128.155 99.4555 126.428C98.3916 122.009 96.182 118.187 92.9822 114.963C89.2178 111.166 85.4452 107.361 81.6152 103.629C80.7478 102.786 80.7969 102.344 81.6316 101.517C94.5535 88.6692 107.418 75.7555 120.356 62.9236C125.275 58.0462 131.241 56.4095 137.886 58.4554C144.318 60.444 148.361 64.9532 149.76 71.541C151.053 77.6132 149.351 82.9734 144.997 87.4008V87.3926Z" fill="#FDFAFF"/>
<path d="M94.0051 78.3579C88.8985 83.5217 83.7347 88.6283 78.5954 93.7512C77.6624 94.6842 76.574 95.2734 75.2155 95.2816C73.9225 95.3061 72.8341 94.7987 71.9339 93.9067C66.7128 88.7101 61.4917 83.5217 56.3033 78.2924C54.2492 76.222 54.2492 73.7587 56.3033 71.6883C61.4507 66.4917 66.6228 61.3278 71.8275 56.1885C73.9553 54.0854 76.4267 54.1181 78.5626 56.2376C83.7183 61.3524 88.8576 66.4753 93.9805 71.6228C96.0755 73.7342 96.1164 76.2302 94.0051 78.3661V78.3579Z" fill="#FDFAFF"/>
<path d="M217.831 16.6045H235.016L249.42 56.2131L263.823 16.6045H281.172L261.204 68.1611L278.553 111.043L314.888 16.1135H334.856L287.391 132.321H271.352L249.583 80.2728L227.651 132.321H211.611L164.146 16.1135H184.114L220.45 111.043L237.799 68.1611L217.831 16.6045Z" fill="#FDFAFF"/>
<path d="M357.443 133.957C350.675 133.957 344.619 132.795 339.275 130.463C333.923 128.139 329.291 124.939 325.363 120.88C321.435 116.821 318.407 112.164 316.28 106.91C314.152 101.657 313.088 96.1081 313.088 90.2568C313.088 82.1633 314.946 74.7735 318.653 68.0793C322.36 61.3933 327.573 56.0494 334.283 52.0558C340.994 48.0622 348.711 46.0654 357.443 46.0654C366.175 46.0654 374.277 48.095 380.766 52.1458C387.256 56.1967 392.305 61.5161 395.906 68.112C399.507 74.6998 401.307 81.7786 401.307 89.3403C401.307 90.6415 401.25 91.8526 401.143 92.9901C401.037 94.1277 400.922 95.0115 400.816 95.6662H332.074C332.622 100.732 334.095 105.118 336.493 108.834C338.891 112.549 342.001 115.454 345.822 117.557C349.644 119.66 353.679 120.708 357.934 120.708C362.844 120.708 367.451 119.505 371.764 117.107C376.077 114.709 378.99 111.542 380.521 107.614L395.906 112.033C394.048 116.182 391.217 119.914 387.395 123.245C383.573 126.576 379.129 129.194 374.056 131.101C368.982 133.008 363.442 133.965 357.443 133.965V133.957ZM331.746 83.8736H383.467C383.025 78.9553 381.642 74.6753 379.293 71.0417C376.944 67.4082 373.867 64.544 370.046 62.4572C366.224 60.3703 362.083 59.3228 357.607 59.3228C353.13 59.3228 348.85 60.3703 345.086 62.4572C341.321 64.544 338.236 67.4082 335.838 71.0417C333.44 74.6753 332.074 78.9553 331.746 83.8736Z" fill="#FDFAFF"/>
<path d="M452.373 133.957C445.826 133.957 439.909 132.402 434.614 129.293C429.32 126.183 425.146 122.066 422.093 116.935V132.32H406.217V12.84H424.221V63.5783C427.601 58.2344 431.832 53.979 436.906 50.8119C441.98 47.6449 447.954 46.0654 454.828 46.0654C460.614 46.0654 465.818 47.252 470.458 49.6335C475.099 52.0149 479.076 55.2802 482.407 59.4456C485.737 63.611 488.299 68.3084 490.099 73.5541C491.9 78.7998 492.8 84.3401 492.8 90.175C492.8 96.0099 491.793 101.902 489.772 107.205C487.75 112.508 484.919 117.181 481.261 121.232C477.603 125.291 473.323 128.425 468.413 130.635C463.502 132.852 458.159 133.957 452.373 133.957ZM447.79 118.572C451.612 118.572 455.155 117.795 458.429 116.232C461.702 114.668 464.509 112.598 466.858 110.02C469.206 107.442 471.031 104.431 472.341 100.986C473.65 97.5402 474.305 93.9885 474.305 90.3305C474.305 85.1666 473.241 80.412 471.113 76.0501C468.985 71.6883 466.015 68.1693 462.193 65.4769C458.371 62.7845 453.952 61.4424 448.936 61.4424C445.335 61.4424 441.947 62.2771 438.788 63.9466C435.621 65.616 432.814 67.8174 430.359 70.5589C427.904 73.3004 425.858 76.3447 424.221 79.6754V101.943C424.769 104.423 425.858 106.649 427.495 108.645C429.131 110.634 431.095 112.385 433.387 113.891C435.678 115.397 438.051 116.551 440.507 117.361C442.962 118.171 445.392 118.572 447.79 118.572Z" fill="#FDFAFF"/>
<path d="M507.203 73.2349C507.203 66.1398 508.455 59.1837 510.967 52.3668C513.479 45.5499 517.162 39.3303 522.015 33.7082C526.868 28.0861 532.76 23.6178 539.691 20.2871C546.623 16.9564 554.504 15.2951 563.342 15.2951C573.923 15.2951 583.007 17.6684 590.593 22.4148C598.18 27.1613 603.826 33.2417 607.533 40.6643L593.13 50.3209C591.06 45.6317 588.359 41.9163 585.029 39.1912C581.698 36.4661 578.073 34.5511 574.144 33.4627C570.216 32.3743 566.395 31.826 562.687 31.826C556.689 31.826 551.394 33.0535 546.811 35.5086C542.228 37.9637 538.382 41.2126 535.272 45.2471C532.163 49.2816 529.847 53.8153 528.316 58.8318C526.786 63.8484 526.025 68.8731 526.025 73.8896C526.025 79.5609 526.925 84.962 528.725 90.0931C530.526 95.2243 533.087 99.7743 536.418 103.76C539.749 107.745 543.677 110.879 548.202 113.171C552.728 115.462 557.72 116.608 563.178 116.608C567 116.608 570.92 115.953 574.963 114.644C578.997 113.335 582.737 111.264 586.174 108.424C589.611 105.585 592.312 101.984 594.276 97.622L609.498 106.133C607.206 111.919 603.524 116.829 598.45 120.863C593.376 124.906 587.672 127.959 581.346 130.029C575.02 132.1 568.743 133.139 562.524 133.139C554.561 133.139 547.196 131.42 540.428 127.983C533.66 124.546 527.801 119.963 522.833 114.235C517.866 108.506 514.02 102.066 511.294 94.9215C508.569 87.7772 507.203 80.5429 507.203 73.2349Z" fill="#FDFAFF"/>
<path d="M655.973 133.957C649.205 133.957 643.149 132.795 637.805 130.471C632.461 128.147 627.846 124.931 623.975 120.823C620.104 116.714 617.125 112.042 615.055 106.796C612.984 101.55 611.945 96.0099 611.945 90.175C611.945 84.3401 612.984 78.4725 615.055 73.2268C617.125 67.9811 620.104 63.3083 623.975 59.2001C627.846 55.0919 632.486 51.8758 637.887 49.5516C643.288 47.2275 649.319 46.0654 655.973 46.0654C662.626 46.0654 668.763 47.2275 674.058 49.5516C679.353 51.8758 683.96 55.0919 687.889 59.2001C691.817 63.3083 694.82 67.9811 696.891 73.2268C698.961 78.4725 700 84.1191 700 90.175C700 96.2309 698.961 101.558 696.891 106.796C694.82 112.042 691.841 116.714 687.97 120.823C684.1 124.931 679.459 128.147 674.058 130.471C668.657 132.795 662.626 133.957 655.973 133.957ZM630.44 90.0113C630.44 95.5025 631.585 100.396 633.877 104.693C636.168 108.997 639.221 112.385 643.042 114.857C646.864 117.336 651.12 118.572 655.809 118.572C660.498 118.572 665.081 117.336 668.903 114.857C672.724 112.385 675.777 108.94 678.068 104.529C680.36 100.118 681.505 95.2816 681.505 90.0031C681.505 84.7247 680.36 79.7573 678.068 75.4036C675.777 71.0499 672.692 67.6292 668.821 65.1578C664.95 62.6863 660.662 61.4506 655.973 61.4506C651.283 61.4506 646.864 62.7436 643.042 65.3214C639.221 67.9074 636.168 71.3445 633.877 75.6491C631.585 79.9537 630.44 84.7411 630.44 90.0113Z" fill="#FDFAFF"/>
</g>
<defs>
<clipPath id="clip0_73_24">
<rect width="700" height="149.891" fill="white"/>
</clipPath>
</defs>
</svg>
