<svg width="18" height="20" viewBox="0 0 18 20" fill="none" xmlns="http://www.w3.org/2000/svg">
<path d="M17.0995 1.90735e-06L0.898996 1.90735e-06C0.734976 0.000764847 0.5742 0.0679016 0.433975 0.194185C0.293751 0.320469 0.179388 0.501116 0.103199 0.716682C0.0270081 0.932251 -0.00812721 1.17458 0.00157928 1.41757C0.0112839 1.66057 0.0654602 1.89504 0.158276 2.09574L8.25851 19.46C8.59422 20.18 9.40244 20.18 9.73905 19.46L17.8393 2.09574C17.933 1.89546 17.988 1.66087 17.9983 1.41747C18.0085 1.17407 17.9736 0.931158 17.8973 0.715134C17.8211 0.499109 17.7064 0.318232 17.5657 0.192152C17.425 0.0660744 17.2638 -0.00038147 17.0995 1.90735e-06Z" fill="#FDFAFF"/>
</svg>
