<svg width="14" height="15" viewBox="0 0 14 15" fill="none" xmlns="http://www.w3.org/2000/svg">
<path d="M13.3246 9.53674e-07L1.17425 9.53674e-07C1.05123 0.000574112 0.93065 0.0509262 0.825481 0.145639C0.720313 0.240352 0.634542 0.375836 0.577398 0.537512C0.520256 0.699188 0.493905 0.880933 0.501184 1.06318C0.508463 1.24543 0.549095 1.42128 0.618707 1.5718L6.69388 14.595C6.94566 15.135 7.55183 15.135 7.80429 14.595L13.8795 1.5718C13.9498 1.42159 13.991 1.24565 13.9987 1.0631C14.0064 0.88055 13.9802 0.698369 13.923 0.53635C13.8658 0.374332 13.7798 0.238673 13.6743 0.144114C13.5688 0.0495558 13.4478 -0.000287056 13.3246 9.53674e-07Z" fill="#FDFAFF"/>
</svg>
