<svg width="30" height="30" viewBox="0 0 30 30" fill="none" xmlns="http://www.w3.org/2000/svg">
<g clip-path="url(#clip0_176_7332)">
<path fill-rule="evenodd" clip-rule="evenodd" d="M15 16.7674L22.0713 23.8387C22.307 24.0664 22.6228 24.1924 22.9505 24.1895C23.2783 24.1867 23.5918 24.0552 23.8235 23.8235C24.0553 23.5917 24.1868 23.2782 24.1896 22.9504C24.1925 22.6227 24.0665 22.3069 23.8388 22.0712L16.7675 14.9999L23.8388 7.92869C24.0665 7.69294 24.1925 7.37719 24.1896 7.04944C24.1868 6.7217 24.0553 6.40818 23.8235 6.17642C23.5918 5.94466 23.2783 5.8132 22.9505 5.81035C22.6228 5.8075 22.307 5.93349 22.0713 6.16119L15 13.2324L7.92877 6.16119C7.69196 5.93912 7.37804 5.8179 7.05344 5.82317C6.72883 5.82844 6.41901 5.95979 6.18954 6.18943C5.96006 6.41908 5.82892 6.72899 5.82388 7.05359C5.81884 7.3782 5.94029 7.69204 6.16252 7.92869L13.2325 14.9999L6.16127 22.0712C6.04189 22.1865 5.94666 22.3244 5.88115 22.4769C5.81564 22.6294 5.78115 22.7935 5.77971 22.9594C5.77827 23.1254 5.80989 23.29 5.87275 23.4436C5.9356 23.5973 6.02841 23.7368 6.14578 23.8542C6.26315 23.9716 6.40271 24.0644 6.55633 24.1272C6.70995 24.1901 6.87455 24.2217 7.04052 24.2203C7.2065 24.2188 7.37052 24.1843 7.52303 24.1188C7.67553 24.0533 7.81346 23.9581 7.92877 23.8387L15 16.7674Z" fill="#22042F"/>
</g>
<defs>
<clipPath id="clip0_176_7332">
<rect width="30" height="30" fill="white"/>
</clipPath>
</defs>
</svg>
