<svg width="17" height="16" viewBox="0 0 17 16" fill="none" xmlns="http://www.w3.org/2000/svg">
<path d="M14.1313 8.93544L9.54251 13.525C9.23828 13.8291 8.82571 14 8.39553 14C7.96534 14 7.55277 13.8291 7.24854 13.525L2.65978 8.93625C2.28046 8.56023 1.97914 8.113 1.77312 7.62021C1.56711 7.12743 1.46045 6.59881 1.45928 6.0647C1.45811 5.53059 1.56245 5.00151 1.76631 4.50783C1.97016 4.01415 2.26952 3.5656 2.6472 3.18792C3.02487 2.81025 3.47342 2.51089 3.9671 2.30703C4.46078 2.10318 4.98986 1.99884 5.52398 2.00001C6.05809 2.00118 6.58671 2.10783 7.07949 2.31385C7.57227 2.51986 8.01951 2.82118 8.39553 3.20051C9.15929 2.45576 10.1857 2.0419 11.2525 2.04858C12.3192 2.05526 13.3404 2.48195 14.0948 3.23622C14.8491 3.99048 15.276 5.01159 15.2828 6.07833C15.2896 7.14508 14.8759 8.17157 14.1313 8.93544Z" stroke="#8E8492" stroke-width="2.2" stroke-linecap="round" stroke-linejoin="round"/>
</svg>
