<svg width="18" height="12" viewBox="0 0 18 12" fill="none" xmlns="http://www.w3.org/2000/svg">
<path d="M17.9277 5.65214C17.9013 5.59429 17.2755 4.205 15.8934 2.82286C14.0441 0.976428 11.7134 0 9.14197 0C6.57054 0 4.23983 0.976428 2.39269 2.82286C1.01054 4.205 0.38483 5.59429 0.356258 5.65214C0.307868 5.76185 0.282875 5.88045 0.282875 6.00036C0.282875 6.12027 0.307868 6.23886 0.356258 6.34857C0.382687 6.40714 1.0084 7.79571 2.39126 9.17786C4.23983 11.0243 6.57054 12 9.14197 12C11.7134 12 14.0441 11.0243 15.8905 9.17786C17.2734 7.79571 17.8991 6.40714 17.9255 6.34857C17.9743 6.23901 17.9996 6.12049 18 6.00058C18.0004 5.88067 17.9757 5.762 17.9277 5.65214ZM14.6377 8.00929C13.1041 9.51929 11.2555 10.2857 9.14197 10.2857C7.0284 10.2857 5.17983 9.51929 3.6484 8.00857C3.04579 7.41231 2.52743 6.73654 2.10769 6C2.52755 5.26376 3.0459 4.58824 3.6484 3.99214C5.18054 2.48071 7.0284 1.71429 9.14197 1.71429C11.2555 1.71429 13.1034 2.48071 14.6355 3.99214C15.2381 4.58819 15.7565 5.26371 16.1763 6C15.7564 6.73649 15.2381 7.41225 14.6355 8.00857L14.6377 8.00929ZM9.14197 2.85714C8.52037 2.85714 7.91274 3.04147 7.3959 3.38681C6.87906 3.73215 6.47623 4.223 6.23835 4.79728C6.00048 5.37156 5.93824 6.00349 6.0595 6.61314C6.18077 7.2228 6.4801 7.7828 6.91964 8.22234C7.35917 8.66187 7.91918 8.9612 8.52883 9.08247C9.13849 9.20374 9.77041 9.1415 10.3447 8.90362C10.919 8.66575 11.4098 8.26292 11.7552 7.74608C12.1005 7.22924 12.2848 6.6216 12.2848 6C12.2839 5.16675 11.9525 4.3679 11.3633 3.77871C10.7741 3.18951 9.97522 2.85809 9.14197 2.85714ZM9.14197 7.42857C8.85943 7.42857 8.58323 7.34479 8.3483 7.18781C8.11337 7.03084 7.93027 6.80773 7.82214 6.54669C7.71402 6.28565 7.68573 5.99842 7.74085 5.7213C7.79597 5.44418 7.93203 5.18964 8.13182 4.98985C8.33161 4.79006 8.58616 4.654 8.86327 4.59888C9.14039 4.54376 9.42763 4.57205 9.68866 4.68017C9.9497 4.7883 10.1728 4.9714 10.3298 5.20633C10.4868 5.44126 10.5705 5.71746 10.5705 6C10.5705 6.37888 10.42 6.74224 10.1521 7.01015C9.88422 7.27806 9.52085 7.42857 9.14197 7.42857Z" fill="#8E8492"/>
</svg>
