<svg width="17" height="15" viewBox="0 0 17 15" fill="none" xmlns="http://www.w3.org/2000/svg">
<path d="M14.672 8.43544L10.0832 13.025C9.77901 13.3291 9.36643 13.5 8.93625 13.5C8.50607 13.5 8.0935 13.3291 7.78926 13.025L3.20051 8.43625C2.82118 8.06023 2.51986 7.613 2.31385 7.12021C2.10783 6.62743 2.00118 6.09881 2.00001 5.5647C1.99884 5.03059 2.10318 4.50151 2.30703 4.00783C2.51089 3.51415 2.81025 3.0656 3.18792 2.68792C3.5656 2.31025 4.01415 2.01089 4.50783 1.80703C5.00151 1.60318 5.53059 1.49884 6.0647 1.50001C6.59881 1.50118 7.12743 1.60783 7.62021 1.81385C8.113 2.01986 8.56023 2.32118 8.93625 2.70051C9.70002 1.95576 10.7264 1.5419 11.7932 1.54858C12.8599 1.55526 13.8811 1.98195 14.6355 2.73622C15.3898 3.49048 15.8167 4.51159 15.8235 5.57833C15.8304 6.64508 15.4166 7.67157 14.672 8.43544Z" stroke="#22042F" stroke-width="2.2" stroke-linecap="round" stroke-linejoin="round"/>
</svg>
