<svg width="19" height="13" viewBox="0 0 19 13" fill="none" xmlns="http://www.w3.org/2000/svg">
<path d="M18.4684 6.15214C18.442 6.09429 17.8163 4.705 16.4341 3.32286C14.5848 1.47643 12.2541 0.5 9.68271 0.5C7.11128 0.5 4.78056 1.47643 2.93342 3.32286C1.55128 4.705 0.925563 6.09429 0.896992 6.15214C0.848601 6.26185 0.823608 6.38045 0.823608 6.50036C0.823608 6.62027 0.848601 6.73886 0.896992 6.84857C0.92342 6.90714 1.54913 8.29571 2.93199 9.67786C4.78056 11.5243 7.11128 12.5 9.68271 12.5C12.2541 12.5 14.5848 11.5243 16.4313 9.67786C17.8141 8.29571 18.4398 6.90714 18.4663 6.84857C18.515 6.73901 18.5404 6.62049 18.5407 6.50058C18.5411 6.38067 18.5165 6.262 18.4684 6.15214ZM15.1784 8.50929C13.6448 10.0193 11.7963 10.7857 9.68271 10.7857C7.56913 10.7857 5.72056 10.0193 4.18913 8.50857C3.58652 7.91231 3.06816 7.23654 2.64842 6.5C3.06828 5.76376 3.58664 5.08824 4.18913 4.49214C5.72128 2.98071 7.56913 2.21429 9.68271 2.21429C11.7963 2.21429 13.6441 2.98071 15.1763 4.49214C15.7788 5.08819 16.2972 5.76371 16.717 6.5C16.2972 7.23649 15.7788 7.91225 15.1763 8.50857L15.1784 8.50929ZM9.68271 3.35714C9.06111 3.35714 8.45347 3.54147 7.93663 3.88681C7.41979 4.23215 7.01696 4.723 6.77909 5.29728C6.54121 5.87156 6.47897 6.50349 6.60024 7.11314C6.72151 7.7228 7.02083 8.2828 7.46037 8.72234C7.89991 9.16187 8.45991 9.4612 9.06956 9.58247C9.67922 9.70374 10.3111 9.6415 10.8854 9.40362C11.4597 9.16575 11.9506 8.76292 12.2959 8.24608C12.6412 7.72924 12.8256 7.1216 12.8256 6.5C12.8246 5.66675 12.4932 4.8679 11.904 4.27871C11.3148 3.68951 10.516 3.35809 9.68271 3.35714ZM9.68271 7.92857C9.40016 7.92857 9.12396 7.84479 8.88903 7.68781C8.65411 7.53084 8.471 7.30773 8.36288 7.04669C8.25475 6.78565 8.22646 6.49842 8.28158 6.2213C8.33671 5.94418 8.47276 5.68964 8.67255 5.48985C8.87234 5.29006 9.12689 5.154 9.40401 5.09888C9.68112 5.04376 9.96836 5.07205 10.2294 5.18017C10.4904 5.2883 10.7135 5.4714 10.8705 5.70633C11.0275 5.94126 11.1113 6.21746 11.1113 6.5C11.1113 6.87888 10.9608 7.24224 10.6929 7.51015C10.4249 7.77806 10.0616 7.92857 9.68271 7.92857Z" fill="#22042F"/>
</svg>
