<svg width="30" height="30" viewBox="0 0 30 30" fill="none" xmlns="http://www.w3.org/2000/svg">
<g clip-path="url(#clip0_133_643)">
<path d="M27.75 22.0419L17.5019 4.24461C17.2458 3.80858 16.8802 3.44705 16.4414 3.19585C16.0025 2.94465 15.5056 2.8125 15 2.8125C14.4943 2.8125 13.9974 2.94465 13.5586 3.19585C13.1197 3.44705 12.7541 3.80858 12.498 4.24461L2.24998 22.0419C2.00357 22.4636 1.87372 22.9433 1.87372 23.4317C1.87372 23.9202 2.00357 24.3998 2.24998 24.8216C2.50278 25.2602 2.86775 25.6237 3.30743 25.8748C3.74711 26.1258 4.24566 26.2553 4.75193 26.2501H25.248C25.7539 26.2549 26.252 26.1252 26.6912 25.8742C27.1304 25.6231 27.495 25.2599 27.7476 24.8216C27.9944 24.4 28.1246 23.9205 28.1251 23.432C28.1255 22.9436 27.996 22.4638 27.75 22.0419ZM14.0625 12.1876C14.0625 11.9389 14.1612 11.7005 14.3371 11.5247C14.5129 11.3488 14.7513 11.2501 15 11.2501C15.2486 11.2501 15.4871 11.3488 15.6629 11.5247C15.8387 11.7005 15.9375 11.9389 15.9375 12.1876V16.8751C15.9375 17.1237 15.8387 17.3622 15.6629 17.538C15.4871 17.7138 15.2486 17.8126 15 17.8126C14.7513 17.8126 14.5129 17.7138 14.3371 17.538C14.1612 17.3622 14.0625 17.1237 14.0625 16.8751V12.1876ZM15 22.5001C14.7218 22.5001 14.45 22.4176 14.2187 22.2631C13.9874 22.1086 13.8072 21.8889 13.7008 21.632C13.5943 21.375 13.5665 21.0923 13.6207 20.8195C13.675 20.5467 13.8089 20.2961 14.0056 20.0995C14.2023 19.9028 14.4528 19.7689 14.7256 19.7146C14.9984 19.6603 15.2812 19.6882 15.5381 19.7946C15.7951 19.9011 16.0147 20.0813 16.1692 20.3126C16.3237 20.5438 16.4062 20.8157 16.4062 21.0938C16.4062 21.4668 16.2581 21.8245 15.9943 22.0882C15.7306 22.3519 15.3729 22.5001 15 22.5001Z" fill="#A713E7"/>
</g>
<defs>
<clipPath id="clip0_133_643">
<rect width="30" height="30" fill="white"/>
</clipPath>
</defs>
</svg>
