<svg width="30" height="30" viewBox="0 0 30 30" fill="none" xmlns="http://www.w3.org/2000/svg">
<g clip-path="url(#clip0_137_23)">
<path d="M11.25 3.75C11.5247 3.74998 11.7919 3.84048 12.01 4.0075L12.135 4.11625L15.5175 7.5H23.75C24.7065 7.49995 25.6269 7.86541 26.3228 8.5216C27.0188 9.1778 27.4376 10.0751 27.4938 11.03L27.5 11.25V21.25C27.5001 22.2065 27.1346 23.1269 26.4784 23.8228C25.8222 24.5188 24.9249 24.9376 23.97 24.9938L23.75 25H6.25C5.29349 25.0001 4.37311 24.6346 3.67717 23.9784C2.98124 23.3222 2.56237 22.4249 2.50625 21.47L2.5 21.25V7.5C2.49995 6.54349 2.86541 5.62311 3.5216 4.92717C4.1778 4.23124 5.07513 3.81237 6.03 3.75625L6.25 3.75H11.25Z" fill="#A713E7"/>
</g>
<defs>
<clipPath id="clip0_137_23">
<rect width="30" height="30" fill="white"/>
</clipPath>
</defs>
</svg>
