<svg width="17" height="16" viewBox="0 0 17 16" fill="none" xmlns="http://www.w3.org/2000/svg">
<path d="M15.5 15L12.1221 11.6221M12.1221 11.6221C12.6999 11.0444 13.1583 10.3584 13.471 9.60349C13.7837 8.84856 13.9446 8.03944 13.9446 7.22231C13.9446 6.40519 13.7837 5.59606 13.471 4.84114C13.1583 4.08621 12.6999 3.40027 12.1221 2.82247C11.5444 2.24468 10.8584 1.78635 10.1035 1.47365C9.34856 1.16094 8.53944 1 7.72231 1C6.90519 1 6.09606 1.16094 5.34114 1.47365C4.58621 1.78635 3.90027 2.24468 3.32247 2.82247C2.15556 3.98938 1.5 5.57205 1.5 7.22231C1.5 8.87257 2.15556 10.4552 3.32247 11.6221C4.48938 12.7891 6.07205 13.4446 7.72231 13.4446C9.37257 13.4446 10.9552 12.7891 12.1221 11.6221Z" stroke="#8E8492" stroke-width="1.5" stroke-linecap="round" stroke-linejoin="round"/>
</svg>
